<svg version="1.1" id="Layer_1" xmlns="http://www.w3.org/2000/svg" xmlns:xlink="http://www.w3.org/1999/xlink" x="0px" y="0px"
	 width="100%" viewBox="0 0 1120 1120" enable-background="new 0 0 1120 1120" xml:space="preserve">
<path fill="#FEFEFE" opacity="1.000000" stroke="none" 
	d="
M621.000000,1121.000000 
	C414.022980,1121.000000 207.545959,1121.000000 1.034470,1121.000000 
	C1.034470,747.731201 1.034470,374.462372 1.034470,1.096787 
	C374.227234,1.096787 747.454468,1.096787 1120.840820,1.096787 
	C1120.840820,374.333282 1120.840820,747.666626 1120.840820,1121.000000 
	C954.461914,1121.000000 787.980957,1121.000000 621.000000,1121.000000 
M316.038574,365.946045 
	C316.038574,365.946045 316.122314,365.950806 315.958435,365.416626 
	C315.657227,365.211304 315.356018,365.005981 314.810791,364.205566 
	C312.950226,362.447845 311.089661,360.690094 309.021454,358.401215 
	C308.705505,358.213135 308.389557,358.025055 308.067352,357.937988 
	C308.067352,357.937988 308.166199,357.916260 308.011566,357.380249 
	C307.695129,357.205383 307.378662,357.030548 307.051300,356.947113 
	C307.051300,356.947113 307.142639,356.935272 306.978180,356.408752 
	C306.672882,356.224274 306.367615,356.039795 306.095581,355.921112 
	C306.095581,355.921112 306.138000,355.860077 305.886078,355.241791 
	C303.537689,352.857758 301.189270,350.473724 298.763489,347.412476 
	C296.784119,345.717102 294.804749,344.021729 292.370148,341.997833 
	C291.945587,341.635101 291.521027,341.272369 290.981232,340.244537 
	C288.916046,338.642395 286.850861,337.040253 284.452423,335.155396 
	C284.452423,335.155396 284.074524,334.935913 283.938904,334.274597 
	C281.569519,332.613647 279.200165,330.952698 276.516632,329.037231 
	C276.516632,329.037231 276.152679,328.861053 275.946533,328.226349 
	C270.915588,325.249359 265.884644,322.272369 260.477600,319.081848 
	C260.477600,319.081848 260.071930,318.932037 259.902588,318.276428 
	C250.037033,312.121887 239.620712,307.431427 227.547119,305.848206 
	C229.715149,314.289154 232.264023,322.115326 235.687775,329.537964 
	C238.191742,334.966431 241.846161,339.864197 245.196274,345.419830 
	C245.196274,345.419830 245.465652,345.805023 245.296005,346.506561 
	C248.841202,351.362640 252.386383,356.218750 256.164856,361.448944 
	C256.164856,361.448944 256.445892,361.788666 256.318878,362.478363 
	C261.507874,368.360779 266.696869,374.243225 272.125519,380.480255 
	C272.125519,380.480255 272.410370,380.799622 272.310028,381.479401 
	C277.848663,386.683563 283.387299,391.887695 288.982300,396.995300 
	C288.982300,396.995300 288.915314,397.088196 289.027161,397.753082 
	C291.369507,399.808411 293.711853,401.863739 296.386444,404.157867 
	C296.386444,404.157867 296.782318,404.261292 297.022369,404.824188 
	C297.703064,405.174957 298.383789,405.525757 299.487946,406.160583 
	C299.717407,406.410614 299.946869,406.660614 300.262573,407.583801 
	C305.426086,412.120361 310.464294,416.811157 315.794922,421.141998 
	C319.680511,424.298859 323.951691,426.981049 328.506256,430.373260 
	C330.626373,431.969177 332.746460,433.565094 335.201660,435.494720 
	C335.448822,435.714813 335.737885,435.825043 336.491089,436.123505 
	C336.707703,436.387878 336.924286,436.652283 337.164032,437.559723 
	C337.836456,437.933655 338.508850,438.307556 339.611420,438.879944 
	C339.611420,438.879944 340.084747,438.860199 339.887665,438.918335 
	C339.887665,438.918335 339.887115,439.123810 340.021210,439.781097 
	C345.072601,443.401917 350.123993,447.022766 355.532379,450.885254 
	C355.532379,450.885254 355.926422,451.060150 356.049835,451.726013 
	C358.429352,453.347321 360.808838,454.968658 363.554382,456.846863 
	C363.554382,456.846863 363.955872,457.043671 364.062195,457.674530 
	C364.753967,458.028137 365.445740,458.381775 366.458588,458.980011 
	C366.458588,458.980011 366.820374,459.158966 366.990234,459.809723 
	C370.714111,462.427399 374.437958,465.045074 378.494141,467.925690 
	C378.494141,467.925690 378.870605,468.120148 379.023346,468.764984 
	C380.075256,469.377594 381.127167,469.990204 382.521301,470.880768 
	C382.521301,470.880768 382.913940,471.081329 383.053619,471.742096 
	C388.761139,475.697815 394.468658,479.653534 400.513123,483.892120 
	C400.513123,483.892120 400.904358,484.093262 401.038239,484.748627 
	C402.090668,485.342438 403.143066,485.936249 404.550781,486.824188 
	C404.550781,486.824188 404.954498,487.047180 405.080750,487.711121 
	C409.049591,490.478729 413.018402,493.246368 417.000000,496.000000 
	C417.000000,496.000000 416.988892,496.013702 417.305695,496.340149 
	C417.531891,496.551117 417.793762,496.698669 418.505493,497.212433 
	C418.992126,497.539886 419.478790,497.867310 420.132874,498.830780 
	C422.426849,500.511536 424.720825,502.192322 427.014771,503.873077 
	C427.365997,503.550110 427.717224,503.227112 428.068451,502.904144 
	C427.142853,501.297791 426.379272,499.568451 425.267242,498.103607 
	C409.649536,477.530579 394.075317,456.923187 378.267303,436.496887 
	C374.269440,431.331116 369.488770,426.771149 364.849579,421.535034 
	C364.849579,421.535034 364.554688,421.190216 364.677826,420.510468 
	C361.468903,416.987274 358.259979,413.464081 354.837372,409.547607 
	C354.837372,409.547607 354.561249,409.195343 354.694733,408.513611 
	C351.745575,404.863190 348.898376,401.123413 345.807678,397.597015 
	C344.051605,395.593384 341.897125,393.938934 339.564270,391.785095 
	C339.318176,391.562256 339.104553,391.311737 338.968048,390.317535 
	C337.610504,388.940002 336.252930,387.562469 334.521851,385.903229 
	C334.521851,385.903229 334.078613,385.753448 334.050629,385.378937 
	C334.050629,385.378937 333.872986,385.048065 333.900360,384.331573 
	C331.229095,381.620514 328.557831,378.909454 325.498810,375.868408 
	C325.278809,375.610840 325.058777,375.353271 324.911804,374.374786 
	C322.240906,371.643982 319.570007,368.913177 316.509796,365.947144 
	C316.509796,365.947144 316.062347,365.865570 316.038574,365.946045 
M433.989838,589.857849 
	C433.989838,589.857849 434.050171,590.014465 433.689148,590.344299 
	C433.438202,590.553894 433.214203,590.789124 432.304352,591.122925 
	C430.850098,591.888306 429.260345,592.473083 427.962463,593.446838 
	C414.924133,603.228943 401.893463,613.022156 388.939209,622.915161 
	C369.381622,637.850891 349.607513,652.521729 330.437897,667.942200 
	C307.893341,686.077515 285.286926,704.218079 263.818787,723.588196 
	C237.943085,746.935242 217.088074,774.566895 200.304520,805.175659 
	C198.610794,808.264587 197.209442,811.513916 195.672424,814.688782 
	C196.034439,815.025635 196.396439,815.362427 196.758453,815.699219 
	C198.599457,815.172607 200.455215,814.692322 202.279282,814.112427 
	C238.449631,802.612549 268.775635,781.671936 296.075775,755.896973 
	C320.946442,732.415771 343.148926,706.488464 364.597290,679.938171 
	C382.365509,657.943420 399.541565,635.468384 416.852142,613.107117 
	C422.432220,605.898865 427.605743,598.375977 433.308960,590.651550 
	C433.522644,590.406006 433.751984,590.176147 433.989838,589.857849 
M568.523254,742.810852 
	C567.029358,732.312744 565.535461,721.814636 564.041565,711.316528 
	C562.561768,713.617004 561.722778,715.935059 561.378784,718.324463 
	C559.933655,728.361389 558.543762,738.408264 557.302063,748.472290 
	C552.864563,784.439392 548.143738,820.376343 544.199646,856.398010 
	C540.251526,892.457031 537.046082,928.613647 541.314880,964.908081 
	C544.044861,988.119568 548.979492,1010.822571 558.144287,1032.440918 
	C559.799255,1036.344727 561.789124,1040.106567 564.216492,1045.168701 
	C566.112732,1041.631226 567.512756,1039.443481 568.514526,1037.086182 
	C581.460083,1006.623657 586.876038,974.541016 587.421204,941.725464 
	C587.707703,924.478210 586.063171,907.164856 584.663696,889.932251 
	C582.900818,868.224854 580.721802,846.544556 578.313477,824.898010 
	C575.299011,797.804260 571.869080,770.756653 568.523254,742.810852 
M583.178223,109.122055 
	C579.067078,87.239410 573.553955,65.822067 562.514465,44.887623 
	C560.756775,47.781052 559.516663,49.490952 558.611206,51.362709 
	C545.155823,79.176582 538.298279,108.720192 536.510071,139.403778 
	C535.218689,161.562683 537.223572,183.637726 540.172119,205.617386 
	C543.222107,228.353333 545.918274,251.140808 549.289978,273.828339 
	C552.393188,294.709473 556.157166,315.493042 559.700439,336.307617 
	C560.612732,341.666992 561.789856,346.981293 562.845276,352.316284 
	C563.320374,352.245422 563.795410,352.174561 564.270508,352.103668 
	C566.386536,337.849243 568.646729,323.614380 570.587585,309.336151 
	C574.238708,282.476807 577.981323,255.625015 581.161072,228.708084 
	C583.677917,207.402847 586.621033,186.033081 587.119324,164.639435 
	C587.543030,146.452652 584.746216,128.190872 583.178223,109.122055 
M777.115112,402.570251 
	C798.765930,385.147949 820.901428,368.288208 841.943604,350.159454 
	C867.620728,328.037659 889.323547,302.437164 903.487122,271.219818 
	C906.595459,264.369080 908.637756,257.034698 911.491272,249.024002 
	C909.110413,249.583832 907.988159,249.723679 906.957336,250.108444 
	C887.475830,257.380463 869.601196,267.551636 852.986511,280.010376 
	C831.609985,296.039825 811.939148,313.952911 793.961670,333.700714 
	C775.476257,354.006531 756.774048,374.133728 738.863464,394.938934 
	C720.412170,416.372345 702.796509,438.525269 684.826355,460.372528 
	C680.870667,465.181702 676.962585,470.030029 673.032593,474.860321 
	C673.446411,475.332977 673.860229,475.805634 674.274048,476.278290 
	C708.354614,451.837585 742.435242,427.396881 777.115112,402.570251 
M806.070129,509.848969 
	C785.241516,513.183350 764.412842,516.517700 743.584229,519.852112 
	C743.598633,520.499329 743.613037,521.146545 743.627441,521.793701 
	C750.700745,523.355286 757.711121,525.337158 764.858093,526.405701 
	C795.934631,531.051880 826.981750,536.006042 858.169678,539.769714 
	C901.284241,544.972595 944.337830,543.381104 986.862854,534.408386 
	C1003.018616,530.999512 1018.725891,525.465393 1034.637573,520.899963 
	C1034.601685,520.153320 1034.565796,519.406677 1034.529785,518.659973 
	C1028.799805,516.593018 1023.136658,514.311890 1017.328064,512.496460 
	C993.571594,505.071533 969.311157,500.509857 944.414856,498.908356 
	C917.042603,497.147583 889.831055,498.500854 862.695007,501.834595 
	C844.065430,504.123260 825.512634,507.037140 806.070129,509.848969 
M816.625488,735.850952 
	C836.744202,752.312805 859.253052,764.376831 884.742981,773.355469 
	C883.968933,770.614990 883.727295,768.813354 882.977661,767.256409 
	C877.435242,755.745605 872.660889,743.751587 866.021851,732.902832 
	C843.265442,695.716736 811.201782,667.018616 778.053284,639.595825 
	C753.715149,619.461548 728.592529,600.272461 703.721008,580.787903 
	C697.136658,575.629700 690.188354,570.936279 683.407104,566.029419 
	C683.062256,566.393677 682.717346,566.757996 682.372437,567.122253 
	C683.689209,569.148987 684.896484,571.257446 686.339050,573.190308 
	C716.886902,614.121094 747.263000,655.182434 778.135803,695.866821 
	C789.197754,710.444397 801.769043,723.815125 816.625488,735.850952 
M133.652267,564.605103 
	C138.400650,565.447144 143.150345,566.281738 147.897156,567.132446 
	C179.351562,572.768860 210.969345,572.293457 242.379822,567.808167 
	C269.029297,564.002686 295.421692,558.382812 321.909454,553.466675 
	C330.611908,551.851562 339.256744,549.926147 347.927948,548.142578 
	C345.259216,546.727783 342.688232,546.041748 340.076385,545.593811 
	C328.610382,543.627319 317.174927,541.413757 305.650726,539.869019 
	C276.329041,535.938782 247.054642,531.197388 217.596283,528.863159 
	C182.124680,526.052490 146.701462,528.204163 112.084808,537.539978 
	C102.607155,540.096008 93.340691,543.435120 83.977318,546.414856 
	C84.087189,546.913208 84.197060,547.411560 84.306938,547.909912 
	C99.913246,555.067993 116.032555,560.751831 133.652267,564.605103 
M733.802002,831.544861 
	C728.879333,814.110657 724.421692,796.527649 718.902466,779.284424 
	C713.456726,762.270874 705.877808,746.141907 695.186157,731.635559 
	C689.402954,723.788818 683.105347,716.512939 674.106018,712.241760 
	C666.877319,708.810974 658.443787,712.351685 656.603516,720.105347 
	C655.480103,724.838806 655.106140,730.081421 655.843689,734.872375 
	C661.284912,770.213684 675.701294,802.172974 694.858643,831.900146 
	C706.914001,850.606934 720.815002,868.125488 733.929382,886.146912 
	C735.503662,888.310303 737.337646,890.284668 739.931519,893.405823 
	C739.297241,871.866760 738.322266,851.962891 733.802002,831.544861 
M691.681274,227.003281 
	C678.180481,259.531891 669.000671,293.251984 663.552734,328.128906 
	C665.375061,327.099579 666.576111,325.747742 667.846497,324.464478 
	C689.065247,303.030701 708.845032,280.410492 725.873169,255.431671 
	C744.439453,228.196304 754.051697,198.371872 752.517090,165.292099 
	C752.192017,158.284256 750.787842,151.326508 749.880859,144.345673 
	C749.334473,144.275772 748.788025,144.205872 748.241638,144.135986 
	C723.976501,167.695465 704.913635,194.867722 691.681274,227.003281 
M420.470764,349.037292 
	C423.002808,350.625946 425.405792,352.489075 428.091217,353.751526 
	C435.959167,357.450287 441.414307,355.214294 445.087494,347.322205 
	C448.682220,339.598755 447.903748,331.696167 446.082153,323.855255 
	C440.896332,301.533447 430.457764,281.521240 418.441772,262.244934 
	C404.309265,239.573090 387.102081,219.288452 369.467346,199.340134 
	C366.703400,196.213562 363.916016,193.107681 360.926849,189.753662 
	C360.115967,191.037842 359.652649,191.440292 359.627014,191.868912 
	C359.508148,193.856659 359.202362,195.902008 359.518127,197.836182 
	C362.269989,214.691620 364.173920,231.763092 368.204468,248.313858 
	C374.164307,272.786743 384.237579,295.850159 396.296539,317.972015 
	C402.530548,329.408203 409.753601,340.164520 420.470764,349.037292 
M426.481781,796.208313 
	C429.169067,784.708557 431.958405,773.231384 434.514893,761.702576 
	C437.064056,750.207031 439.379700,738.659668 441.797729,727.135010 
	C437.944122,730.364014 435.034210,733.964050 432.253418,737.661255 
	C410.530701,766.542114 389.485626,795.877014 373.125305,828.248474 
	C360.399261,853.428894 352.816498,879.925537 353.514008,908.398621 
	C353.624603,912.913330 354.245972,917.415527 354.644226,922.076355 
	C356.108429,921.760681 356.655396,921.771912 357.048523,921.531494 
	C357.895416,921.013794 358.727814,920.436279 359.453888,919.762329 
	C375.029724,905.304504 388.848022,889.458069 399.357178,870.818115 
	C412.409302,847.667664 420.055573,822.612549 426.481781,796.208313 
z"/>
<path fill="#F3CE2D" opacity="1.000000" stroke="none" 
	d="
M568.570923,743.250000 
	C571.869080,770.756653 575.299011,797.804260 578.313477,824.898010 
	C580.721802,846.544556 582.900818,868.224854 584.663696,889.932251 
	C586.063171,907.164856 587.707703,924.478210 587.421204,941.725464 
	C586.876038,974.541016 581.460083,1006.623657 568.514526,1037.086182 
	C567.512756,1039.443481 566.112732,1041.631226 564.216492,1045.168701 
	C561.789124,1040.106567 559.799255,1036.344727 558.144287,1032.440918 
	C548.979492,1010.822571 544.044861,988.119568 541.314880,964.908081 
	C537.046082,928.613647 540.251526,892.457031 544.199646,856.398010 
	C548.143738,820.376343 552.864563,784.439392 557.302063,748.472290 
	C558.543762,738.408264 559.933655,728.361389 561.378784,718.324463 
	C561.722778,715.935059 562.561768,713.617004 564.041565,711.316528 
	C565.535461,721.814636 567.029358,732.312744 568.570923,743.250000 
z"/>
<path fill="#F3CE2D" opacity="1.000000" stroke="none" 
	d="
M583.276245,109.542160 
	C584.746216,128.190872 587.543030,146.452652 587.119324,164.639435 
	C586.621033,186.033081 583.677917,207.402847 581.161072,228.708084 
	C577.981323,255.625015 574.238708,282.476807 570.587585,309.336151 
	C568.646729,323.614380 566.386536,337.849243 564.270508,352.103668 
	C563.795410,352.174561 563.320374,352.245422 562.845276,352.316284 
	C561.789856,346.981293 560.612732,341.666992 559.700439,336.307617 
	C556.157166,315.493042 552.393188,294.709473 549.289978,273.828339 
	C545.918274,251.140808 543.222107,228.353333 540.172119,205.617386 
	C537.223572,183.637726 535.218689,161.562683 536.510071,139.403778 
	C538.298279,108.720192 545.155823,79.176582 558.611206,51.362709 
	C559.516663,49.490952 560.756775,47.781052 562.514465,44.887623 
	C573.553955,65.822067 579.067078,87.239410 583.276245,109.542160 
z"/>
<path fill="#E07B45" opacity="1.000000" stroke="none" 
	d="
M776.815430,402.763214 
	C742.435242,427.396881 708.354614,451.837585 674.274048,476.278290 
	C673.860229,475.805634 673.446411,475.332977 673.032593,474.860321 
	C676.962585,470.030029 680.870667,465.181702 684.826355,460.372528 
	C702.796509,438.525269 720.412170,416.372345 738.863464,394.938934 
	C756.774048,374.133728 775.476257,354.006531 793.961670,333.700714 
	C811.939148,313.952911 831.609985,296.039825 852.986511,280.010376 
	C869.601196,267.551636 887.475830,257.380463 906.957336,250.108444 
	C907.988159,249.723679 909.110413,249.583832 911.491272,249.024002 
	C908.637756,257.034698 906.595459,264.369080 903.487122,271.219818 
	C889.323547,302.437164 867.620728,328.037659 841.943604,350.159454 
	C820.901428,368.288208 798.765930,385.147949 776.815430,402.763214 
z"/>
<path fill="#EDA23E" opacity="1.000000" stroke="none" 
	d="
M432.965271,590.997009 
	C427.605743,598.375977 422.432220,605.898865 416.852142,613.107117 
	C399.541565,635.468384 382.365509,657.943420 364.597290,679.938171 
	C343.148926,706.488464 320.946442,732.415771 296.075775,755.896973 
	C268.775635,781.671936 238.449631,802.612549 202.279282,814.112427 
	C200.455215,814.692322 198.599457,815.172607 196.758453,815.699219 
	C196.396439,815.362427 196.034439,815.025635 195.672424,814.688782 
	C197.209442,811.513916 198.610794,808.264587 200.304520,805.175659 
	C217.088074,774.566895 237.943085,746.935242 263.818787,723.588196 
	C285.286926,704.218079 307.893341,686.077515 330.437897,667.942200 
	C349.607513,652.521729 369.381622,637.850891 388.939209,622.915161 
	C401.893463,613.022156 414.924133,603.228943 427.962463,593.446838 
	C429.260345,592.473083 430.850098,591.888306 432.652344,591.068359 
	C433.000366,591.013855 432.965271,590.997009 432.965271,590.997009 
z"/>
<path fill="#DC764D" opacity="1.000000" stroke="none" 
	d="
M806.497803,509.760254 
	C825.512634,507.037140 844.065430,504.123260 862.695007,501.834595 
	C889.831055,498.500854 917.042603,497.147583 944.414856,498.908356 
	C969.311157,500.509857 993.571594,505.071533 1017.328064,512.496460 
	C1023.136658,514.311890 1028.799805,516.593018 1034.529785,518.659973 
	C1034.565796,519.406677 1034.601685,520.153320 1034.637573,520.899963 
	C1018.725891,525.465393 1003.018616,530.999512 986.862854,534.408386 
	C944.337830,543.381104 901.284241,544.972595 858.169678,539.769714 
	C826.981750,536.006042 795.934631,531.051880 764.858093,526.405701 
	C757.711121,525.337158 750.700745,523.355286 743.627441,521.793701 
	C743.613037,521.146545 743.598633,520.499329 743.584229,519.852112 
	C764.412842,516.517700 785.241516,513.183350 806.497803,509.760254 
z"/>
<path fill="#E68F41" opacity="1.000000" stroke="none" 
	d="
M816.359253,735.615479 
	C801.769043,723.815125 789.197754,710.444397 778.135803,695.866821 
	C747.263000,655.182434 716.886902,614.121094 686.339050,573.190308 
	C684.896484,571.257446 683.689209,569.148987 682.372437,567.122253 
	C682.717346,566.757996 683.062256,566.393677 683.407104,566.029419 
	C690.188354,570.936279 697.136658,575.629700 703.721008,580.787903 
	C728.592529,600.272461 753.715149,619.461548 778.053284,639.595825 
	C811.201782,667.018616 843.265442,695.716736 866.021851,732.902832 
	C872.660889,743.751587 877.435242,755.745605 882.977661,767.256409 
	C883.727295,768.813354 883.968933,770.614990 884.742981,773.355469 
	C859.253052,764.376831 836.744202,752.312805 816.359253,735.615479 
z"/>
<path fill="#DD764E" opacity="1.000000" stroke="none" 
	d="
M133.236649,564.558899 
	C116.032555,560.751831 99.913246,555.067993 84.306938,547.909912 
	C84.197060,547.411560 84.087189,546.913208 83.977318,546.414856 
	C93.340691,543.435120 102.607155,540.096008 112.084808,537.539978 
	C146.701462,528.204163 182.124680,526.052490 217.596283,528.863159 
	C247.054642,531.197388 276.329041,535.938782 305.650726,539.869019 
	C317.174927,541.413757 328.610382,543.627319 340.076385,545.593811 
	C342.688232,546.041748 345.259216,546.727783 347.927948,548.142578 
	C339.256744,549.926147 330.611908,551.851562 321.909454,553.466675 
	C295.421692,558.382812 269.029297,564.002686 242.379822,567.808167 
	C210.969345,572.293457 179.351562,572.768860 147.897156,567.132446 
	C143.150345,566.281738 138.400650,565.447144 133.236649,564.558899 
z"/>
<path fill="#ECA950" opacity="1.000000" stroke="none" 
	d="
M733.859131,831.966797 
	C738.322266,851.962891 739.297241,871.866760 739.931519,893.405823 
	C737.337646,890.284668 735.503662,888.310303 733.929382,886.146912 
	C720.815002,868.125488 706.914001,850.606934 694.858643,831.900146 
	C675.701294,802.172974 661.284912,770.213684 655.843689,734.872375 
	C655.106140,730.081421 655.480103,724.838806 656.603516,720.105347 
	C658.443787,712.351685 666.877319,708.810974 674.106018,712.241760 
	C683.105347,716.512939 689.402954,723.788818 695.186157,731.635559 
	C705.877808,746.141907 713.456726,762.270874 718.902466,779.284424 
	C724.421692,796.527649 728.879333,814.110657 733.859131,831.966797 
z"/>
<path fill="#EBA43E" opacity="1.000000" stroke="none" 
	d="
M691.833618,226.651932 
	C704.913635,194.867722 723.976501,167.695465 748.241638,144.135986 
	C748.788025,144.205872 749.334473,144.275772 749.880859,144.345673 
	C750.787842,151.326508 752.192017,158.284256 752.517090,165.292099 
	C754.051697,198.371872 744.439453,228.196304 725.873169,255.431671 
	C708.845032,280.410492 689.065247,303.030701 667.846497,324.464478 
	C666.576111,325.747742 665.375061,327.099579 663.552734,328.128906 
	C669.000671,293.251984 678.180481,259.531891 691.833618,226.651932 
z"/>
<path fill="#F2BB39" opacity="1.000000" stroke="none" 
	d="
M420.169586,348.847656 
	C409.753601,340.164520 402.530548,329.408203 396.296539,317.972015 
	C384.237579,295.850159 374.164307,272.786743 368.204468,248.313858 
	C364.173920,231.763092 362.269989,214.691620 359.518127,197.836182 
	C359.202362,195.902008 359.508148,193.856659 359.627014,191.868912 
	C359.652649,191.440292 360.115967,191.037842 360.926849,189.753662 
	C363.916016,193.107681 366.703400,196.213562 369.467346,199.340134 
	C387.102081,219.288452 404.309265,239.573090 418.441772,262.244934 
	C430.457764,281.521240 440.896332,301.533447 446.082153,323.855255 
	C447.903748,331.696167 448.682220,339.598755 445.087494,347.322205 
	C441.414307,355.214294 435.959167,357.450287 428.091217,353.751526 
	C425.405792,352.489075 423.002808,350.625946 420.169586,348.847656 
z"/>
<path fill="#E89A42" opacity="1.000000" stroke="none" 
	d="
M426.357269,796.600342 
	C420.055573,822.612549 412.409302,847.667664 399.357178,870.818115 
	C388.848022,889.458069 375.029724,905.304504 359.453888,919.762329 
	C358.727814,920.436279 357.895416,921.013794 357.048523,921.531494 
	C356.655396,921.771912 356.108429,921.760681 354.644226,922.076355 
	C354.245972,917.415527 353.624603,912.913330 353.514008,908.398621 
	C352.816498,879.925537 360.399261,853.428894 373.125305,828.248474 
	C389.485626,795.877014 410.530701,766.542114 432.253418,737.661255 
	C435.034210,733.964050 437.944122,730.364014 441.797729,727.135010 
	C439.379700,738.659668 437.064056,750.207031 434.514893,761.702576 
	C431.958405,773.231384 429.169067,784.708557 426.357269,796.600342 
z"/>
<path fill="#E17A43" opacity="1.000000" stroke="none" 
	d="
M298.840851,348.089691 
	C301.189270,350.473724 303.537689,352.857758 305.609375,355.600311 
	C304.253784,356.779694 302.418396,357.452271 302.223541,358.446442 
	C301.246368,363.431274 300.691437,368.499268 300.003479,373.540161 
	C299.737885,375.486053 300.001556,377.675995 299.186432,379.345886 
	C295.269165,387.371216 294.255890,395.421967 297.694122,403.871765 
	C297.181610,404.073547 296.981964,404.167419 296.782318,404.261292 
	C296.782318,404.261292 296.386444,404.157867 296.184875,403.698669 
	C293.627289,401.189026 291.271301,399.138611 288.915314,397.088196 
	C288.915314,397.088196 288.982300,396.995300 288.873688,396.713776 
	C283.313507,391.221375 277.861938,386.010498 272.410370,380.799622 
	C272.410370,380.799622 272.125519,380.480255 272.006775,379.952820 
	C266.740631,373.546509 261.593262,367.667572 256.445892,361.788666 
	C256.445892,361.788666 256.164856,361.448944 256.035187,360.900177 
	C252.425568,355.502625 248.945618,350.653809 245.465652,345.805023 
	C245.465652,345.805023 245.196274,345.419830 245.089493,344.848602 
	C238.893478,332.522400 231.977737,321.088837 229.858170,306.795898 
	C233.578827,308.093414 236.421539,308.938873 239.148682,310.064362 
	C246.150467,312.953918 253.100952,315.967834 260.071930,318.932037 
	C260.071930,318.932037 260.477600,319.081848 260.765900,319.500458 
	C266.087036,322.899719 271.119843,325.880402 276.152679,328.861053 
	C276.152679,328.861053 276.516632,329.037231 276.732391,329.491394 
	C279.323608,331.609009 281.699066,333.272461 284.074524,334.935913 
	C284.074524,334.935913 284.452423,335.155396 284.701660,335.605896 
	C286.999390,337.674164 289.047913,339.291931 291.096436,340.909668 
	C291.521027,341.272369 291.945587,341.635101 292.664124,342.480225 
	C294.919006,344.671661 296.879913,346.380676 298.840851,348.089691 
z"/>
<path fill="#E58A41" opacity="1.000000" stroke="none" 
	d="
M378.870605,468.120148 
	C378.870605,468.120148 378.494141,467.925690 378.244354,467.479095 
	C374.269836,464.407990 370.545105,461.783478 366.820374,459.158997 
	C366.820374,459.158966 366.458588,458.980011 366.230713,458.554413 
	C365.320496,457.767090 364.638184,457.405396 363.955872,457.043671 
	C363.955872,457.043671 363.554382,456.846863 363.296021,456.405029 
	C360.667267,454.328827 358.296844,452.694489 355.926422,451.060150 
	C355.926422,451.060150 355.532379,450.885254 355.277344,450.439636 
	C349.977264,446.370575 344.932190,442.747192 339.887115,439.123810 
	C339.887115,439.123810 339.887665,438.918335 340.116272,438.570862 
	C339.271484,433.906677 338.644470,429.408844 336.988983,425.328308 
	C335.562927,421.813293 334.246948,419.231079 338.407135,416.601013 
	C339.613220,415.838501 339.779175,413.024658 339.950531,411.109070 
	C340.427826,405.773773 340.657745,400.416412 341.287048,395.205994 
	C345.912933,399.961243 350.237091,404.578278 354.561249,409.195343 
	C354.561249,409.195343 354.837372,409.547607 354.944000,410.096619 
	C358.218658,414.160492 361.386658,417.675354 364.554688,421.190216 
	C364.554688,421.190216 364.849579,421.535034 364.953369,422.088623 
	C365.464691,423.352051 365.785767,424.131531 366.292877,424.761230 
	C372.513977,432.486115 378.908569,440.076050 384.971954,447.922180 
	C396.286957,462.564026 407.474854,477.305847 418.526306,492.147034 
	C419.663055,493.673676 419.516510,496.155945 419.965424,498.194763 
	C419.478790,497.867310 418.992126,497.539886 418.200531,496.767456 
	C417.593353,496.219513 417.291107,496.116608 416.988892,496.013702 
	C416.988892,496.013702 417.000000,496.000000 416.907043,495.679077 
	C412.860870,492.587860 408.907684,489.817505 404.954498,487.047180 
	C404.954498,487.047180 404.550781,486.824188 404.283264,486.378174 
	C402.978638,485.319183 401.941498,484.706207 400.904358,484.093262 
	C400.904358,484.093262 400.513123,483.892120 400.256958,483.440002 
	C394.305176,479.019012 388.609558,475.050171 382.913940,471.081329 
	C382.913940,471.081329 382.521301,470.880768 382.271545,470.432159 
	C380.971405,469.362427 379.920990,468.741272 378.870605,468.120148 
z"/>
<path fill="#E47F3D" opacity="1.000000" stroke="none" 
	d="
M340.985352,395.067749 
	C340.657745,400.416412 340.427826,405.773773 339.950531,411.109070 
	C339.779175,413.024658 339.613220,415.838501 338.407135,416.601013 
	C334.246948,419.231079 335.562927,421.813293 336.988983,425.328308 
	C338.644470,429.408844 339.271484,433.906677 340.214844,438.541779 
	C340.084747,438.860199 339.611420,438.879944 339.339722,438.486816 
	C338.425629,437.701324 337.783264,437.308990 337.140900,436.916656 
	C336.924286,436.652283 336.707703,436.387878 336.166656,435.737915 
	C335.516998,435.288574 335.191772,435.224823 334.866547,435.161072 
	C332.746460,433.565094 330.626373,431.969177 328.171936,429.808716 
	C318.617218,421.799652 309.396790,414.355133 300.176361,406.910614 
	C299.946869,406.660614 299.717407,406.410614 299.273132,405.700439 
	C298.707855,404.748169 298.357391,404.256012 298.006958,403.763855 
	C294.255890,395.421967 295.269165,387.371216 299.186432,379.345886 
	C300.001556,377.675995 299.737885,375.486053 300.003479,373.540161 
	C300.691437,368.499268 301.246368,363.431274 302.223541,358.446442 
	C302.418396,357.452271 304.253784,356.779694 305.735352,355.909454 
	C306.138000,355.860077 306.095581,355.921112 306.172180,356.143829 
	C306.546753,356.556122 306.844696,356.745697 307.142639,356.935272 
	C307.142639,356.935272 307.051300,356.947113 307.152222,357.157959 
	C307.557495,357.551300 307.861847,357.733765 308.166199,357.916260 
	C308.166199,357.916260 308.067352,357.937988 308.171204,358.154053 
	C308.593079,358.557495 308.911072,358.744934 309.229095,358.932373 
	C311.089661,360.690094 312.950226,362.447845 315.021790,364.766571 
	C315.529297,365.535339 315.825806,365.743073 316.122314,365.950806 
	C316.122314,365.950806 316.038574,365.946045 316.105316,366.129211 
	C316.303131,366.601868 316.511902,366.815338 316.984619,367.197266 
	C317.796295,368.246490 318.421661,369.051270 319.120453,370.100952 
	C319.444733,370.566406 319.695587,370.786987 320.173248,371.128693 
	C320.596375,371.526520 320.792725,371.803223 321.100769,372.279480 
	C321.405121,372.727386 321.649445,372.904358 321.970459,373.007385 
	C321.995483,373.004822 321.990082,373.054840 322.097351,373.258301 
	C322.392700,373.715424 322.634277,373.898560 322.955566,374.014832 
	C322.981842,374.018463 322.987976,374.071167 323.090027,374.266205 
	C323.367828,374.705231 323.592957,374.888641 324.108368,375.054901 
	C324.349243,375.098328 324.838745,375.095734 324.838745,375.095734 
	C325.058777,375.353271 325.278809,375.610840 325.748840,376.360474 
	C328.623596,379.584381 331.248291,382.316223 333.872986,385.048065 
	C333.872986,385.048065 334.050629,385.378937 334.099670,385.794434 
	C334.247040,386.514191 334.431671,386.751282 334.862366,387.217529 
	C336.322510,388.687103 337.622955,389.860321 338.923370,391.033539 
	C339.104553,391.311737 339.318176,391.562256 339.744507,392.274872 
	C340.278290,393.532349 340.631836,394.300049 340.985352,395.067749 
z"/>
<path fill="#E1B38D" opacity="1.000000" stroke="none" 
	d="
M420.049133,498.512756 
	C419.516510,496.155945 419.663055,493.673676 418.526306,492.147034 
	C407.474854,477.305847 396.286957,462.564026 384.971954,447.922180 
	C378.908569,440.076050 372.513977,432.486115 366.292877,424.761230 
	C365.785767,424.131531 365.464691,423.352051 365.062500,422.287476 
	C369.488770,426.771149 374.269440,431.331116 378.267303,436.496887 
	C394.075317,456.923187 409.649536,477.530579 425.267242,498.103607 
	C426.379272,499.568451 427.142853,501.297791 428.068451,502.904144 
	C427.717224,503.227112 427.365997,503.550110 427.014771,503.873077 
	C424.720825,502.192322 422.426849,500.511536 420.049133,498.512756 
z"/>
<path fill="#E1B38D" opacity="1.000000" stroke="none" 
	d="
M259.987244,318.604248 
	C253.100952,315.967834 246.150467,312.953918 239.148682,310.064362 
	C236.421539,308.938873 233.578827,308.093414 229.858170,306.795898 
	C231.977737,321.088837 238.893478,332.522400 244.985245,344.637939 
	C241.846161,339.864197 238.191742,334.966431 235.687775,329.537964 
	C232.264023,322.115326 229.715149,314.289154 227.547119,305.848206 
	C239.620712,307.431427 250.037033,312.121887 259.987244,318.604248 
z"/>
<path fill="#E1B38D" opacity="1.000000" stroke="none" 
	d="
M300.219482,407.247192 
	C309.396790,414.355133 318.617218,421.799652 327.944305,429.559509 
	C323.951691,426.981049 319.680511,424.298859 315.794922,421.141998 
	C310.464294,416.811157 305.426086,412.120361 300.219482,407.247192 
z"/>
<path fill="#E1B38D" opacity="1.000000" stroke="none" 
	d="
M256.382385,362.133514 
	C261.593262,367.667572 266.740631,373.546509 271.886932,379.775513 
	C266.696869,374.243225 261.507874,368.360779 256.382385,362.133514 
z"/>
<path fill="#E1B38D" opacity="1.000000" stroke="none" 
	d="
M272.360199,381.139496 
	C277.861938,386.010498 283.313507,391.221375 288.845520,396.762024 
	C283.387299,391.887695 277.848663,386.683563 272.360199,381.139496 
z"/>
<path fill="#E1B38D" opacity="1.000000" stroke="none" 
	d="
M341.287079,395.205994 
	C340.631836,394.300049 340.278290,393.532349 339.923401,392.445923 
	C341.897125,393.938934 344.051605,395.593384 345.807678,397.597015 
	C348.898376,401.123413 351.745575,404.863190 354.627991,408.854492 
	C350.237091,404.578278 345.912933,399.961243 341.287079,395.205994 
z"/>
<path fill="#E1B38D" opacity="1.000000" stroke="none" 
	d="
M382.983765,471.411713 
	C388.609558,475.050171 394.305176,479.019012 400.088501,483.298553 
	C394.468658,479.653534 388.761139,475.697815 382.983765,471.411713 
z"/>
<path fill="#E1B38D" opacity="1.000000" stroke="none" 
	d="
M339.954163,439.452454 
	C344.932190,442.747192 349.977264,446.370575 355.098846,450.318787 
	C350.123993,447.022766 345.072601,443.401917 339.954163,439.452454 
z"/>
<path fill="#E1B38D" opacity="1.000000" stroke="none" 
	d="
M245.380829,346.155792 
	C248.945618,350.653809 252.425568,355.502625 255.918549,360.713135 
	C252.386383,356.218750 248.841202,351.362640 245.380829,346.155792 
z"/>
<path fill="#E1B38D" opacity="1.000000" stroke="none" 
	d="
M276.049622,328.543701 
	C271.119843,325.880402 266.087036,322.899719 260.953918,319.607239 
	C265.884644,322.272369 270.915588,325.249359 276.049622,328.543701 
z"/>
<path fill="#E1B38D" opacity="1.000000" stroke="none" 
	d="
M364.616272,420.850342 
	C361.386658,417.675354 358.218658,414.160492 355.050842,410.293243 
	C358.259979,413.464081 361.468903,416.987274 364.616272,420.850342 
z"/>
<path fill="#E1B38D" opacity="1.000000" stroke="none" 
	d="
M405.017639,487.379150 
	C408.907684,489.817505 412.860870,492.587860 416.900635,495.686096 
	C413.018402,493.246368 409.049591,490.478729 405.017639,487.379150 
z"/>
<path fill="#E1B38D" opacity="1.000000" stroke="none" 
	d="
M366.905304,459.484375 
	C370.545105,461.783478 374.269836,464.407990 378.078186,467.347626 
	C374.437958,465.045074 370.714111,462.427399 366.905304,459.484375 
z"/>
<path fill="#E1B38D" opacity="1.000000" stroke="none" 
	d="
M333.886658,384.689819 
	C331.248291,382.316223 328.623596,379.584381 325.942749,376.525482 
	C328.557831,378.909454 331.229095,381.620514 333.886658,384.689819 
z"/>
<path fill="#E1B38D" opacity="1.000000" stroke="none" 
	d="
M324.875275,374.735260 
	C324.838745,375.095734 324.349243,375.098328 324.038696,374.837402 
	C323.550476,374.306915 323.303741,374.138489 322.987976,374.071167 
	C322.987976,374.071167 322.981842,374.018463 322.865723,373.798004 
	C322.564575,373.304321 322.311401,373.130066 321.990082,373.054840 
	C321.990082,373.054840 321.995483,373.004822 321.877808,372.792023 
	C321.571472,372.307220 321.314453,372.140778 320.989075,372.079895 
	C320.792725,371.803223 320.596375,371.526520 320.087555,370.891510 
	C319.532410,370.307465 319.289734,370.081757 319.047028,369.856049 
	C318.421661,369.051270 317.796295,368.246490 317.005585,367.004395 
	C316.840240,366.567047 316.899109,366.182343 316.899109,366.182343 
	C319.570007,368.913177 322.240906,371.643982 324.875275,374.735260 
z"/>
<path fill="#E1B38D" opacity="1.000000" stroke="none" 
	d="
M288.971252,397.420654 
	C291.271301,399.138611 293.627289,401.189026 296.018738,403.579254 
	C293.711853,401.863739 291.369507,399.808411 288.971252,397.420654 
z"/>
<path fill="#E1B38D" opacity="1.000000" stroke="none" 
	d="
M355.988129,451.393066 
	C358.296844,452.694489 360.667267,454.328827 363.113037,456.276550 
	C360.808838,454.968658 358.429352,453.347321 355.988129,451.393066 
z"/>
<path fill="#E1B38D" opacity="1.000000" stroke="none" 
	d="
M284.006714,334.605255 
	C281.699066,333.272461 279.323608,331.609009 276.889465,329.618652 
	C279.200165,330.952698 281.569519,332.613647 284.006714,334.605255 
z"/>
<path fill="#E1B38D" opacity="1.000000" stroke="none" 
	d="
M298.802185,347.751099 
	C296.879913,346.380676 294.919006,344.671661 292.891724,342.644531 
	C294.804749,344.021729 296.784119,345.717102 298.802185,347.751099 
z"/>
<path fill="#E1B38D" opacity="1.000000" stroke="none" 
	d="
M291.038818,340.577087 
	C289.047913,339.291931 286.999390,337.674164 284.868256,335.747284 
	C286.850861,337.040253 288.916046,338.642395 291.038818,340.577087 
z"/>
<path fill="#E1B38D" opacity="1.000000" stroke="none" 
	d="
M338.945709,390.675537 
	C337.622955,389.860321 336.322510,388.687103 334.916351,387.035156 
	C334.810608,386.556396 334.895386,386.184937 334.895386,386.184937 
	C336.252930,387.562469 337.610504,388.940002 338.945709,390.675537 
z"/>
<path fill="#E1B38D" opacity="1.000000" stroke="none" 
	d="
M378.946960,468.442566 
	C379.920990,468.741272 380.971405,469.362427 382.100433,470.293182 
	C381.127167,469.990204 380.075256,469.377594 378.946960,468.442566 
z"/>
<path fill="#E1B38D" opacity="1.000000" stroke="none" 
	d="
M400.971313,484.420959 
	C401.941498,484.706207 402.978638,485.319183 404.105652,486.231110 
	C403.143066,485.936249 402.090668,485.342438 400.971313,484.420959 
z"/>
<path fill="#E1B38D" opacity="1.000000" stroke="none" 
	d="
M337.152466,437.238190 
	C337.783264,437.308990 338.425629,437.701324 339.124634,438.387573 
	C338.508850,438.307556 337.836456,437.933655 337.152466,437.238190 
z"/>
<path fill="#E1B38D" opacity="1.000000" stroke="none" 
	d="
M364.009033,457.359100 
	C364.638184,457.405396 365.320496,457.767090 366.070160,458.432129 
	C365.445740,458.381775 364.753967,458.028137 364.009033,457.359100 
z"/>
<path fill="#E1B38D" opacity="1.000000" stroke="none" 
	d="
M297.694122,403.871765 
	C298.357391,404.256012 298.707855,404.748169 299.061401,405.558411 
	C298.383789,405.525757 297.703064,405.174957 296.902344,404.542725 
	C296.981964,404.167419 297.181610,404.073547 297.694122,403.871765 
z"/>
<path fill="#EDA23E" opacity="1.000000" stroke="none" 
	d="
M434.050171,590.014465 
	C434.050171,590.014465 433.989838,589.857849 434.001648,589.927979 
	C434.013489,589.998047 434.050171,590.014465 434.050171,590.014465 
z"/>
<path fill="#EDA23E" opacity="1.000000" stroke="none" 
	d="
M434.005249,589.979980 
	C433.751984,590.176147 433.522644,590.406006 433.137115,590.824280 
	C432.965271,590.997009 433.000366,591.013855 433.008789,591.031921 
	C433.214203,590.789124 433.438202,590.553894 433.869659,590.179382 
	C434.050171,590.014465 434.013489,589.998047 434.005249,589.979980 
z"/>
<path fill="#E17A43" opacity="1.000000" stroke="none" 
	d="
M309.125275,358.666809 
	C308.911072,358.744934 308.593079,358.557495 308.174316,358.103516 
	C308.389557,358.025055 308.705505,358.213135 309.125275,358.666809 
z"/>
<path fill="#E17A43" opacity="1.000000" stroke="none" 
	d="
M308.088867,357.648254 
	C307.861847,357.733765 307.557495,357.551300 307.157684,357.112244 
	C307.378662,357.030548 307.695129,357.205383 308.088867,357.648254 
z"/>
<path fill="#E17A43" opacity="1.000000" stroke="none" 
	d="
M307.060425,356.671997 
	C306.844696,356.745697 306.546753,356.556122 306.155579,356.110962 
	C306.367615,356.039795 306.672882,356.224274 307.060425,356.671997 
z"/>
<path fill="#E17A43" opacity="1.000000" stroke="none" 
	d="
M316.040375,365.683716 
	C315.825806,365.743073 315.529297,365.535339 315.143799,365.064117 
	C315.356018,365.005981 315.657227,365.211304 316.040375,365.683716 
z"/>
<path fill="#E1B38D" opacity="1.000000" stroke="none" 
	d="
M417.147278,496.176941 
	C417.291107,496.116608 417.593353,496.219513 417.993469,496.552643 
	C417.793762,496.698669 417.531891,496.551117 417.147278,496.176941 
z"/>
<path fill="#E17A43" opacity="1.000000" stroke="none" 
	d="
M316.704468,366.064758 
	C316.899109,366.182343 316.840240,366.567047 316.819275,366.759949 
	C316.511902,366.815338 316.303131,366.601868 316.117188,366.088989 
	C316.062347,365.865570 316.509796,365.947144 316.704468,366.064758 
z"/>
<path fill="#E1B38D" opacity="1.000000" stroke="none" 
	d="
M335.034119,435.327881 
	C335.191772,435.224823 335.516998,435.288574 335.955505,435.588867 
	C335.737885,435.825043 335.448822,435.714813 335.034119,435.327881 
z"/>
<path fill="#E17A43" opacity="1.000000" stroke="none" 
	d="
M334.708618,386.044067 
	C334.895386,386.184937 334.810608,386.556396 334.756622,386.738770 
	C334.431671,386.751282 334.247040,386.514191 334.113647,385.981689 
	C334.078613,385.753448 334.521851,385.903229 334.708618,386.044067 
z"/>
<path fill="#E17A43" opacity="1.000000" stroke="none" 
	d="
M319.120453,370.100952 
	C319.289734,370.081757 319.532410,370.307465 319.860779,370.770355 
	C319.695587,370.786987 319.444733,370.566406 319.120453,370.100952 
z"/>
<path fill="#E17A43" opacity="1.000000" stroke="none" 
	d="
M321.100769,372.279480 
	C321.314453,372.140778 321.571472,372.307220 321.852783,372.794617 
	C321.649445,372.904358 321.405121,372.727386 321.100769,372.279480 
z"/>
<path fill="#E17A43" opacity="1.000000" stroke="none" 
	d="
M322.097351,373.258301 
	C322.311401,373.130066 322.564575,373.304321 322.839447,373.794373 
	C322.634277,373.898560 322.392700,373.715424 322.097351,373.258301 
z"/>
<path fill="#E17A43" opacity="1.000000" stroke="none" 
	d="
M323.090027,374.266205 
	C323.303741,374.138489 323.550476,374.306915 323.797821,374.794006 
	C323.592957,374.888641 323.367828,374.705231 323.090027,374.266205 
z"/>
</svg>